#!OML:ASF F:\VICON\USERDATA\INSTALL\rory3\rory3.ASF
:FULLY-SPECIFIED
:DEGREES
65
root 0.5514425590598254 17.770783311292423 20.30133881261753 -3.89386769855936 -3.1386594719083796 -2.9730114326614556
lfemur -22.672754801811394 -2.400182656731188 -19.932633618191737
ltibia 32.042838452557476
lfoot -4.709570677309061 -3.7289950852330103
ltoes -3.7373070845667105
rfemur 2.2318227513175604 4.587318291021635 26.80934749379969
rtibia 55.009392268494636
rfoot 5.744144741597616 0.710043508244075
rtoes 11.264052040994656
lowerback 1.0 2.0018142555439664 2.4054431288753353
upperback 0.12560422408556576 2.8881775028015233 0.7332807851714834
thorax -5.376117806628854 1.4176957559713455 -0.861626659736104
lowerneck -15.658709720863262 -3.145296077848485 -1.60749469829826
upperneck 21.205074585108015 -4.487897324556849 1.3129172814287824
head 9.272209497058634 -2.01300106379955 0.19065672706059816
lclavicle -8.472326866999367e-16 -2.6068867871953705e-15
lhumerus -35.17893560812382 7.921931738977896 80.28146535904897
lradius 18.09592429372916
lwrist 0.040925964632709366
lhand -26.87463131311283 22.712060347298483
lfingers nan
lthumb -0.22814147039214494 52.904303055430084
rclavicle -3.676908176509887e-16 -2.1293242235999814e-15
rhumerus -25.3567439471916 -17.246519482162476 -80.70158591984978
rradius 22.48442986657058
rwrist 3.9846842789396746
rhand -18.50148205359151 1.0
rfingers nan
rthumb 7.814639823315175 -6.998840103871081
66
root 0.6446703388641399 17.812545983953942 21.431463670699937 -4.3176585569269985 -3.4074724184942387 -1.7550540284298903
lfemur -19.201419921459085 -2.5860829013956734 -21.470640892425607
ltibia 31.396807874333625
lfoot -5.744958177958491 -2.857105445288137
ltoes -4.35128423591783
rfemur -3.0734821327832975 3.936290562268944 24.68180182210741
rtibia 63.746232761194236
rfoot 9.126592318340727 -0.8556599613701739
rtoes 19.473483098929687
lowerback 1.0 1.959596494474298 1.4747527177261728
upperback 0.2260745957302546 2.6825813930634492 0.47865562344926094
thorax -5.452640171963958 1.3328638625859996 -0.5336131949261131
lowerneck -15.655101742563126 -3.0537148166156434 -1.71154373888447
upperneck 21.194769203720206 -4.301949824127972 1.3216260403746023
head 9.279664729317195 -1.949741576739715 0.22649814774735494
lclavicle -8.477999501378598e-16 -2.601627553705437e-15
lhumerus -34.19655224287911 6.775490211711673 80.66801552192545
lradius 19.12910614199657
lwrist 1.3876555296966477
lhand -27.59437906191951 21.994080005558033
lfingers nan
lthumb -0.9674885368984603 52.11820633338772
rclavicle -4.2645936302584457e-16 -2.175852442373885e-15
rhumerus -26.271129186764448 -18.406907988668486 -80.37992345002341
rradius 21.99795960757025
rwrist 4.3025744221949145
rhand -18.387748878866233 1.0
rfingers nan
rthumb 7.92088423543826 -7.111028888480634
67
root 0.7133580847710846 17.890654690343364 21.450970136097112 -4.575522171557897 -3.6605383805643426 -0.81649938409765
lfemur -15.757338196817273 -2.9728691928743167 -22.829124150757867
ltibia 30.052289904875725
lfoot -7.239522750296329 -1.794015532085424
ltoes -4.201026341636302
rfemur -8.89852010057761 3.388642821253532 23.235896481269144
rtibia 71.08386979421321
rfoot 6.663489888454377 -3.14841932268747
rtoes 18.91661215025587
lowerback 1.0 1.7734561545192373 0.7066384232441116
upperback 0.3304310479582296 2.34980916957912 0.36074290076996585
thorax -5.529999129497857 1.1782487645808692 -0.20054865662494348
lowerneck -15.689431198433816 -2.939362667946579 -1.8573043935572757
upperneck 21.175742831326705 -4.052821413332983 1.3199045499479154
head 9.290175763505493 -1.8624645985928792 0.2665017280765311
lclavicle -7.933053104880854e-16 -2.5608049485401482e-15
lhumerus -32.981200763766566 5.456081229254014 81.05140183668713
lradius 20.256261542420894
lwrist 2.3640772197960023
lhand -28.070359893254654 21.80344127276806
lfingers nan
lthumb -1.4155409740571425 51.92220360896477
rclavicle -4.719514888196233e-16 -2.2054023703964774e-15
rhumerus -27.113010125052686 -19.514477353443688 -79.98218898390532
rradius 21.579291927330814
rwrist 4.613425991627299
rhand -18.29946585484043 1.0
rfingers nan
rthumb 8.032524038693674 -7.177523629781154
68
root 0.7428010763963582 17.919060575314088 21.443239618518643 -4.599540342078511 -3.608959905299275 -0.3744190511369194
lfemur -12.733360018359827 -3.2910291821454623 -23.66414681894247
ltibia 29.035704082147667
lfoot -8.551472704970145 -0.40445778889970563
ltoes -4.061532544800001
rfemur -13.989497684829404 2.692534533719006 22.680474749254547
rtibia 75.37294757477864
rfoot 2.308126698175885 -4.910117081964051
rtoes 16.685034619134743
lowerback 1.0 1.4395786440307747 0.327129232766739
upperback 0.44667105014721886 1.8828437088971042 0.4386629220104383
thorax -5.568770618155326 0.9597414544758904 0.19889142855490693
lowerneck -15.730791267921177 -2.838649972124363 -2.02703084950476
upperneck 21.132524561646807 -3.8200404417489855 1.3150492116523627
head 9.294738830000158 -1.7802917593083778 0.3024109695789096
lclavicle -7.962330772472642e-16 -2.558335348217512e-15
lhumerus -31.596331081408696 4.018573387384315 81.38887824420287
lradius 21.452016973598376
lwrist 3.0148751665974625
lhand -28.21736737235378 21.923978145974658
lfingers nan
lthumb -1.4639481393426006 52.164944892252784
rclavicle -4.1792689549819843e-16 -2.149388956738762e-15
rhumerus -27.88814632123225 -20.50359616024697 -79.47754732067287
rradius 21.290445105107505
rwrist 4.688181974019791
rhand -18.21344282649341 1.0
rfingers nan
rthumb 8.089303963001464 -7.268660590175784
69
root 0.7464927636917682 17.948980093395384 21.491097927621254 -4.509939469163038 -3.2137211147052245 -0.13245387732172897
lfemur -9.956503674849861 -3.6564892588008924 -24.313959824588586
ltibia 27.998418902498013
lfoot -10.035122624173038 0.16360512120850323
ltoes -4.118930722511273
rfemur -18.89527436815964 1.8401552630521607 22.39735340547222
rtibia 76.86626394350621
rfoot -1.5315642386502173 -5.635676824945168
rtoes 14.444531528616768
lowerback 1.0 1.0472362466064935 0.04731912674341532
upperback 0.5326911203260616 1.3656275848694097 0.6144607233599196
thorax -5.625524605545145 0.7107069709843853 0.6550020151979405
lowerneck -15.786067064287224 -2.7733923928459343 -2.2077307884803306
upperneck 21.05879518964786 -3.6503902846625986 1.3358216120026538
head 9.291472493816128 -1.7195257300153517 0.33942839151773835
lclavicle -9.87023778415144e-16 -2.6570359350689617e-15
lhumerus -30.128723025530636 2.5162218022646146 81.65528335104575
lradius 22.742659494120925
lwrist 3.516602609726918
lhand -28.046330890388663 22.28255953380052
lfingers nan
lthumb -1.2116872711603455 52.67975112488882
rclavicle -5.67410061195638e-16 -2.217819039881619e-15
rhumerus -28.57781943198229 -21.260193081650396 -78.90293246898581
rradius 21.165213166365522
rwrist 4.453785117749825
rhand -18.170139700308336 1.0
rfingers nan
rthumb 8.178266272908383 -7.228706628816904
70
root 0.7384130092183491 17.949765220255312 22.02083694417083 -4.255644232698132 -2.6002676899226085 -0.009752126088709012
lfemur -7.4359643102733415 -3.957655209299329 -24.838210834769406
ltibia 27.32524713994858
lfoot -10.828143281405143 1.0561562906893625
ltoes -4.131927205024853
rfemur -23.063428772859332 1.1303437246654044 22.21519957589189
rtibia 75.4614122090016
rfoot -4.331263136936053 -5.65123123221445
rtoes 11.600612290099079
lowerback 1.0 0.6162803677871751 -0.16311948070159166
upperback 0.6049661193196241 0.7916573403350446 0.8575346318325089
thorax -5.664614150954543 0.4279943117856715 1.1518461884399238
lowerneck -15.85892392749118 -2.7375405490334135 -2.3667577877967383
upperneck 20.917813914822048 -3.550239234288865 1.3721961420957418
head 9.264078323232535 -1.6830142335526708 0.37185551165182323
lclavicle -9.312149828961327e-16 -2.6623389414835618e-15
lhumerus -28.669431249562138 1.0378463835135396 81.83069199480575
lradius 24.15018266807623
lwrist 4.050204635105487
lhand -27.619219461569283 22.961611739262118
lfingers nan
lthumb -0.7857697617175607 53.43711043402879
rclavicle -6.025667572407578e-16 -2.2805634935525825e-15
rhumerus -29.24800812900761 -21.81530394528936 -78.3458215970447
rradius 21.223234568895137
rwrist 3.9432096714204175
rhand -18.150751167944893 1.0
rfingers nan
rthumb 8.192553178434613 -7.196997530709204
